<svg xmlns="http://www.w3.org/2000/svg" xmlns:xlink="http://www.w3.org/1999/xlink" id="Layer_1" x="0" y="0" enable-background="new 0 0 234.9 201.9" version="1.1" viewBox="0 0 234.9 201.9" xml:space="preserve"><text font-family="'Marion-Regular'" font-size="42" transform="matrix(1 0 0 1 84.1039 109.6962)">T.G</text><path fill="#FFF" stroke="#000" stroke-miterlimit="10" d="M216.2,230.2"/><path fill="none" stroke="#000" stroke-miterlimit="10" stroke-width="3" d="M141.5,152.7L92.1,153c-2.9,0-5.5-1.5-6.9-4	l-24.9-42.7c-1.4-2.5-1.5-5.5,0-8l24.5-42.9c1.4-2.5,4.1-4,6.9-4l49.4-0.2c2.9,0,5.5,1.5,6.9,4l24.9,42.7c1.4,2.5,1.5,5.5,0,8	l-24.5,42.9C147,151.2,144.3,152.7,141.5,152.7z"/><path fill="#FFF" stroke="#000" stroke-miterlimit="10" d="M47.9,150.7"/><path fill="#FFF" stroke="#000" stroke-miterlimit="10" d="M190.6,150.7"/><path fill="none" stroke="#000" stroke-miterlimit="10" stroke-width="3" d="M69.5,13.1l93.5-0.6c2.9,0,5.5,1.5,7,4l47.3,80.7	c1.4,2.5,1.5,5.5,0.1,8l-46.2,81.3c-1.4,2.5-4,4-6.9,4l-93.5,0.6c-2.9,0-5.5-1.5-7-4l-47.3-80.7c-1.4-2.5-1.5-5.5-0.1-8l46.2-81.3	C64,14.7,66.7,13.1,69.5,13.1z"/><line x1="24.2" x2="90.4" y1="83" y2="190.9" fill="none" stroke="#000" stroke-miterlimit="10" stroke-width="3"/><line x1="35.6" x2="87.4" y1="101.6" y2="13" fill="none" stroke="#000" stroke-miterlimit="10" stroke-width="3"/><line x1="79" x2="177" y1="28.2" y2="28.2" fill="none" stroke="#000" stroke-miterlimit="10" stroke-width="3"/><line x1="155.8" x2="208.8" y1="28.2" y2="120.2" fill="none" stroke="#000" stroke-miterlimit="10" stroke-width="3"/><path fill="none" stroke="#000" stroke-miterlimit="10" stroke-width="3" d="M139,191.1"/><path fill="none" stroke="#000" stroke-miterlimit="10" stroke-width="3" d="M150.6,190.6"/><line x1="78" x2="160.6" y1="171.4" y2="170.7" fill="none" stroke="#000" stroke-miterlimit="10" stroke-width="3"/><line x1="150.6" x2="196.7" y1="190.6" y2="99.1" fill="none" stroke="#000" stroke-miterlimit="10" stroke-width="3"/></svg>