<?xml version="1.0" encoding="utf-8"?>
<!-- Generator: Adobe Illustrator 18.1.1, SVG Export Plug-In . SVG Version: 6.00 Build 0)  -->
<svg version="1.1" id="Layer_1" xmlns="http://www.w3.org/2000/svg" xmlns:xlink="http://www.w3.org/1999/xlink" x="0px" y="0px"
	 viewBox="0 0 234.9 201.9" enable-background="new 0 0 234.9 201.9" xml:space="preserve">
<text transform="matrix(1 0 0 1 78.8277 92.7406)"><tspan x="0" y="0" font-family="'Marion-Regular'" font-size="24">Thomas</tspan><tspan x="1.9" y="22" font-family="'Marion-Regular'" font-size="24">Joseph </tspan><tspan x="9.8" y="44" font-family="'Marion-Regular'" font-size="24">Greco</tspan></text>
<path fill="#FFFFFF" stroke="#000000" stroke-miterlimit="10" d="M216.2,230.2"/>
<polygon fill="none" stroke="#000000" stroke-width="3" stroke-miterlimit="10" points="146.1,152.7 87.4,153 57.9,102.3 87,51.4 
	145.6,51.1 175.2,101.8 "/>
<path fill="#FFFFFF" stroke="#000000" stroke-miterlimit="10" d="M47.9,150.7"/>
<path fill="#FFFFFF" stroke="#000000" stroke-miterlimit="10" d="M190.6,150.7"/>
<polygon fill="none" stroke="#000000" stroke-width="3" stroke-miterlimit="10" points="64.9,13.1 167.7,12.5 219.6,101.1 
	168.8,190.4 66.1,191.1 14.1,102.5 "/>
<line fill="none" stroke="#000000" stroke-width="3" stroke-miterlimit="10" x1="24.2" y1="83" x2="90.4" y2="190.9"/>
<line fill="none" stroke="#000000" stroke-width="3" stroke-miterlimit="10" x1="35.6" y1="101.6" x2="87.4" y2="13"/>
<line fill="none" stroke="#000000" stroke-width="3" stroke-miterlimit="10" x1="79" y1="28.2" x2="175" y2="28.2"/>
<line fill="none" stroke="#000000" stroke-width="3" stroke-miterlimit="10" x1="155.8" y1="28.2" x2="208.8" y2="120.2"/>
<path fill="none" stroke="#000000" stroke-width="3" stroke-miterlimit="10" d="M139,191.1"/>
<path fill="none" stroke="#000000" stroke-width="3" stroke-miterlimit="10" d="M150.6,190.6"/>
<line fill="none" stroke="#000000" stroke-width="3" stroke-miterlimit="10" x1="78" y1="171.4" x2="158.2" y2="170.7"/>
<line fill="none" stroke="#000000" stroke-width="3" stroke-miterlimit="10" x1="146.2" y1="192.4" x2="196.7" y2="99.1"/>
</svg>
